<svg xmlns="http://www.w3.org/2000/svg" data-name="Layer 1" width="746" height="721.3">
  <path d="M681 721v-73s28 52 0 73Z" fill="#f1f1f1"/>
  <path d="m682 721-53-49s57 14 53 49Z" fill="#f1f1f1"/>
  <path d="M494 319 212 484a4 4 0 0 1-6-1L24 172a4 4 0 0 1 1-6L308 1a4 4 0 0 1 6 1l182 311a4 4 0 0 1-2 6Z" fill="#fff"/>
  <path d="M494 319 212 484a4 4 0 0 1-6-1L24 172a4 4 0 0 1 1-6L308 1a4 4 0 0 1 6 1l182 311a4 4 0 0 1-2 6ZM26 167a3 3 0 0 0-1 4l182 311a3 3 0 0 0 4 1l283-165a3 3 0 0 0 0-4L313 3a3 3 0 0 0-4-1Z" fill="#3f3d56"/>
  <path d="m208 198-70 41a4 4 0 0 1-6-1l-41-70a4 4 0 0 1 2-6l70-41a4 4 0 0 1 6 1l41 70a4 4 0 0 1-2 6ZM93 163a3 3 0 0 0-1 4l41 70a3 3 0 0 0 4 1l70-41a3 3 0 0 0 1-4l-41-70a3 3 0 0 0-3-1Z" fill="#f2f2f2"/>
  <path d="m193 219-70 41a4 4 0 0 1-6-2l-41-70a4 4 0 0 1 2-5l70-41a4 4 0 0 1 5 1l41 70a4 4 0 0 1-1 6Z" fill="#069"/>
  <path d="M362 166 143 294a4 4 0 0 1-4-7l219-128a4 4 0 0 1 4 7ZM323 220l-167 97a4 4 0 0 1-4-7l167-97a4 4 0 1 1 4 7ZM312 81l-97 57a4 4 0 0 1-4-7l97-57a4 4 0 0 1 4 7ZM301 118l-73 43a4 4 0 0 1-4-7l73-42a4 4 0 0 1 4 6ZM389 212 170 340a4 4 0 0 1-4-6l219-129a4 4 0 0 1 4 7ZM350 266l-167 97a4 4 0 1 1-4-6l167-98a4 4 0 1 1 4 7ZM416 258 197 387a4 4 0 0 1-4-7l219-128a4 4 0 0 1 4 6ZM430 281 210 410a4 4 0 1 1-3-7l219-128a4 4 0 1 1 4 6Z" fill="#ccc"/>
  <path d="M359 371a85 85 0 0 0 8-11l5-12a12 12 0 0 0-4-10 8 8 0 0 0-9-1 10 10 0 0 0-5 9 13 13 0 0 0 5 10c7 4 17 4 24 1 8-4 12-15 5-22-1-2-3 0-3 2a9 9 0 0 0 18-3l-3 2a21 21 0 0 0 21-2 19 19 0 0 0 4-4l5-4 13-9c2-2 0-5-1-3l-12 8-6 4-4 4a17 17 0 0 1-18 3 2 2 0 0 0-3 1 5 5 0 0 1-10 2l-3 1c4 5 1 12-3 15-5 4-13 4-19 2a11 11 0 0 1-6-6 6 6 0 0 1 1-7 5 5 0 0 1 7 0 8 8 0 0 1 2 7l-4 11a79 79 0 0 1-8 10c-1 2 1 4 3 2Z" fill="#069"/>
  <path d="M392 459a9 9 0 0 1 0 1l41-1 5-8 14 5-7 16a7 7 0 0 1-7 4l-46-5a9 9 0 1 1 0-12ZM525 707h-14l-6-52h20v52z" fill="#ffb7b7"/>
  <path d="M528 720h-43a17 17 0 0 1 17-17h26Z" fill="#2f2e41"/>
  <path fill="#ffb7b7" d="m403 707-13-5 15-50 18 7-20 48z"/>
  <path d="m401 720-40-17a17 17 0 0 1 22-9l25 10Z" fill="#2f2e41"/>
  <path fill="#ffb7b7" d="m459 470-1 16 29 3 30 3-9-24-49 2z"/>
  <path d="m458 486-11-77 19-6 5-8 28 2 4 9 14 7-2 42 2 34Z" fill="#2f2e41"/>
  <path d="m451 466-20-8 10-41c1-6 5-7 5-7l8 2 3 27ZM413 698l-26-5 41-115 14-39 13-43 3-16 58 6s16 24 11 63l2 146-26 1-21-147-38 80s-12 35-21 42Z" fill="#2f2e41"/>
  <path d="M493 492a9 9 0 0 1 1 0l27-31-3-9 13-7 8 16a7 7 0 0 1-2 8l-36 30a9 9 0 1 1-8-7Z" fill="#ffb7b7"/>
  <path d="m519 464-11-26 4-19 5-6a3 3 0 0 1 2 0c2 1 3 3 4 7l11 30ZM460 386v-20a27 27 0 0 1 54 0v20a4 4 0 0 1-4 3h-46a4 4 0 0 1-4-3Z" fill="#2f2e41"/>
  <circle cx="481.7" cy="369.1" r="19.7" fill="#ffb7b7"/>
  <path d="M454 367a21 21 0 0 1 21-21h4a21 21 0 0 1 21 21v1h-8l-3-8v8h-5l-1-4-1 4h-28Z" fill="#2f2e41"/>
  <path d="M480 392a4 4 0 0 1-1-4c5-8 11-23 3-32l-1-1h23v34l-21 4a4 4 0 0 1-3-1Z" fill="#2f2e41"/>
  <path fill="#9f616a" d="m213 696 12 4 23-44-18-7-17 47z"/>
  <path d="m206 707 5-16 24 8a16 16 0 0 1 10 21v1Z" fill="#2f2e41"/>
  <path fill="#9f616a" d="M292 708h13l6-50h-19v50z"/>
  <path d="M289 704h25a16 16 0 0 1 16 16h-41Z" fill="#2f2e41"/>
  <path d="m262 390 6-11s21 5 23 18Z" fill="#f1f1f1"/>
  <path fill="#2f2e41" d="m239 517 16 85-41 72 24 9 41-69 6-19 3 99 22-1 10-92-17-86-64 2z"/>
  <path d="M268 537c-22 0-36-4-37-4l11-54 1-50c0-22 14-37 16-39a9 9 0 0 1 5-5c4-3 10 0 10 0l17 6v1l23 74-2 66s-31 5-44 5Z" fill="#3f3d56"/>
  <circle cx="285.5" cy="352.7" r="23" fill="#9f616a"/>
  <path opacity=".2" d="m260 433 40 56 6-26-46-30z"/>
  <path d="M386 471a10 10 0 0 1-15-3l-34 5 7-16 32-3a10 10 0 0 1 10 17Z" fill="#9f616a"/>
  <path fill="#f1f1f1" d="m346 456 12-1 4 17h-16v-16z"/>
  <path d="m356 478-61-5-31-49v-1a17 17 0 0 1 32-11l18 35 36 6Z" fill="#3f3d56"/>
  <path d="M266 373h19l5-15a7 7 0 0 1 7-5c2 0 5-3 9-6 7-6 7-17-1-23h-1c-5-3-10-4-16-4l-15 3c-8 5-12 14-12 23s2 18 5 27" fill="#2f2e41"/>
  <path d="M745 721H1a1 1 0 0 1 0-2h744a1 1 0 0 1 1 1l-1 1Z" fill="#cbcbcb"/>
</svg>