<svg xmlns="http://www.w3.org/2000/svg" width="748" height="526" fill="none">
  <g clip-path="url(#a)">
    <path fill="#FFB8B8" d="M609.437 348.188a9.375 9.375 0 0 0-3.1-14.04l1.853-21.348-12.7-4.29-2.194 30.184a9.43 9.43 0 0 0 10.455 13.038 9.424 9.424 0 0 0 5.683-3.543l.003-.001ZM672.8 514.162h-11.427l-5.437-44.1h16.873l-.009 44.1Z"/>
    <path fill="#08043F" d="M653.207 510.894h22.048v13.882h-35.93a13.882 13.882 0 0 1 13.882-13.882Z"/>
    <path fill="#FFB8B8" d="m646.855 484.9-11.1 2.728-15.806-41.523 16.385-4.027 10.521 42.822Z"/>
    <path fill="#08043F" d="m627.201 486.01 21.409-5.27 3.318 13.48-34.889 8.587a13.884 13.884 0 0 1 10.162-16.797Z"/>
    <path fill="#FCFF64" d="M659.425 500.1a4.211 4.211 0 0 1-4.2-3.779l-13.152-122.55-11.447 37.476 16.213 58.533a4.222 4.222 0 0 1-2.505 5.056l-12.89 5.156a4.225 4.225 0 0 1-4.696-1.078 4.21 4.21 0 0 1-.869-1.458l-19.869-57.008a51.609 51.609 0 0 1-2.835-19.395l2.773-61.523 73.043 3.093-1.14 152.215a4.253 4.253 0 0 1-3.912 4.186l-14.185 1.069c-.111.005-.22.007-.329.007Z"/>
    <path fill="#FFB8B8" d="M647.328 203.374c13.565 0 24.561-10.996 24.561-24.561s-10.996-24.561-24.561-24.561-24.561 10.996-24.561 24.561 10.996 24.561 24.561 24.561Z"/>
    <path fill="#08043F" d="M665.39 346.625c-6.468 0-14.5-.529-22.817-1.076-11.36-.748-23.106-1.521-31.875-1.013a6.964 6.964 0 0 1-6.232-2.714c-9.039-11.574 4.9-56.708 5.5-58.623l11.344-50.468c2.5-11.1 10.471-19.288 20.813-21.368 9.68-1.944 19.043 1.931 25.048 10.375.319.448.637.908.955 1.379 19.552 28.957 8.493 100.9 7.752 105.539 1.033 1.237 6.618 8.232 5.083 13.091-.625 1.977-2.321 3.324-5.042 4-3.467.687-7 .98-10.532.875l.003.003Z"/>
    <path fill="#FCFF64" d="M611.094 346.647c-2.225 0-5.226-.821-9.272-2.5-1.739-.724-7.031-2.925-.606-59.072 3.156-27.58 7.677-54.968 7.722-55.241l.043-.264.244-.11c.116-.053 11.662-5.345 13.67-12.146.067-.235.145-.464.234-.685a6.243 6.243 0 0 1 7.754-3.808 6.562 6.562 0 0 1 4.942 7.488 46.022 46.022 0 0 1-3.991 12.792c-5.433 11.21-9.114 40.928-9.15 41.227-.208 2.538-5.138 62.672-6.088 67.235-.332 1.594-.942 3.544-2.733 4.49a5.838 5.838 0 0 1-2.767.6l-.002-.006ZM637.925 344.343c-.449 0-.885-.149-1.239-.425-7.226-5.491 4.468-72.051 11.4-95.016 1.389-4.6 2.625-8.537 3.676-11.706a89.23 89.23 0 0 0 3.989-17.506c.382-3.226 1.211-5.068 2.537-5.633.921-.393 2-.126 3.22.793 6.407-.316 12.632 2.3 18.4 5.181l5.192 2.59 5.826 103.149c-.165 6.583-13.141 11.23-18.8 11.527-9.089.477-25.41 1.957-32.6 6.509a3 3 0 0 1-1.6.536l-.001.001Z"/>
    <path fill="#FCFF64" d="M605.469 324.989c-.086 0-.172 0-.259-.008l-11.768-.724a4.233 4.233 0 0 1-3.03-1.563 4.226 4.226 0 0 1-.893-3.29l5.325-35.279 10.024-49.5a8.879 8.879 0 0 1 11.362-6.709 8.925 8.925 0 0 1 6.108 9.879l-7.964 49.6-4.715 33.947a4.253 4.253 0 0 1-4.19 3.647Z"/>
    <path fill="#FFB8B8" d="M645.67 286.374a9.382 9.382 0 0 1 14.225-2.093l19.295-9.32 8.524 10.344-27.433 12.779a9.425 9.425 0 0 1-12.506.634 9.427 9.427 0 0 1-2.105-12.344Z"/>
    <path fill="#FCFF64" d="M672.474 296.383a4.234 4.234 0 0 1-4.114-3.241l-2.8-11.65a4.21 4.21 0 0 1 1.94-4.619l16.9-10.116-8.64-31.634a10.752 10.752 0 0 1 20.593-6.181l9.539 29.125a17.574 17.574 0 0 1-6.421 19.773l-24.52 17.74a4.222 4.222 0 0 1-2.477.803ZM489.874 0H16.68A16.7 16.7 0 0 0 0 16.68V67.6a16.7 16.7 0 0 0 16.68 16.68h473.194a16.701 16.701 0 0 0 16.68-16.68V16.68A16.698 16.698 0 0 0 489.874 0Zm14.924 67.6a14.945 14.945 0 0 1-14.924 14.924H16.68A14.946 14.946 0 0 1 1.756 67.6V16.68A14.946 14.946 0 0 1 16.68 1.756h473.194a14.945 14.945 0 0 1 14.924 14.924V67.6Z"/>
    <path fill="#CCC" d="M489.874 204.553H16.68A16.698 16.698 0 0 1 0 187.873v-50.919a16.701 16.701 0 0 1 16.68-16.68h473.194a16.7 16.7 0 0 1 16.68 16.68v50.919a16.7 16.7 0 0 1-16.68 16.68ZM16.68 122.03a14.938 14.938 0 0 0-14.924 14.924v50.919A14.943 14.943 0 0 0 16.68 202.8h473.194a14.94 14.94 0 0 0 14.925-14.924v-50.922a14.938 14.938 0 0 0-14.924-14.924H16.68ZM489.874 324.827H16.68A16.698 16.698 0 0 1 0 308.147v-50.919a16.701 16.701 0 0 1 16.68-16.68h473.194a16.7 16.7 0 0 1 16.68 16.68v50.919a16.7 16.7 0 0 1-16.68 16.68ZM16.68 242.3a14.938 14.938 0 0 0-14.924 14.924v50.919a14.944 14.944 0 0 0 14.924 14.925h473.194a14.94 14.94 0 0 0 14.925-14.924v-50.916a14.94 14.94 0 0 0-14.925-14.928H16.68Z"/>
    <path fill="#FCFF64" d="M80.619 71.172a29.032 29.032 0 1 1 0-58.064 29.032 29.032 0 0 1 0 58.064Z"/>
    <path fill="#CCC" d="M447.01 65.843h-309.9a7.022 7.022 0 0 1-4.966-11.99 7.022 7.022 0 0 1 4.966-2.057h309.9a7.022 7.022 0 0 1 4.966 11.99 7.022 7.022 0 0 1-4.966 2.057ZM346.045 35.994H137.103a7.022 7.022 0 0 1-4.966-11.99 7.022 7.022 0 0 1 4.966-2.057h208.942a7.022 7.022 0 0 1 4.966 11.99 7.022 7.022 0 0 1-4.966 2.057Z"/>
    <path fill="#E6E6E6" d="M80.619 191.445a29.033 29.033 0 1 1 .001-58.066 29.033 29.033 0 0 1-.001 58.066ZM447.01 186.117h-309.9a7.022 7.022 0 1 1 0-14.047h309.9a7.022 7.022 0 1 1 0 14.047ZM346.045 156.268H137.103a7.022 7.022 0 1 1 0-14.047h208.942a7.022 7.022 0 1 1 0 14.047ZM80.619 311.719a29.033 29.033 0 1 1 .001-58.066 29.033 29.033 0 0 1-.001 58.066ZM447.01 306.391h-309.9a7.022 7.022 0 1 1 0-14.047h309.9a7.022 7.022 0 1 1 0 14.047ZM346.045 276.542H137.103a7.022 7.022 0 1 1 0-14.047h208.942a7.022 7.022 0 1 1 0 14.047Z"/>
    <path fill="#08043F" d="M79.137 52.352a3.32 3.32 0 0 1-2-.664l-.036-.027-7.525-5.756a3.346 3.346 0 0 1 .361-5.55 3.346 3.346 0 0 1 3.708.242l4.874 3.738 11.517-15.026a3.343 3.343 0 0 1 4.686-.619l-.071.1.073-.1a3.347 3.347 0 0 1 .618 4.687L81.795 51.043a3.344 3.344 0 0 1-2.66 1.3l.002.009Z"/>
    <path fill="#CCC" d="M746.62 526h-198a.997.997 0 0 1-1-1 .997.997 0 0 1 1-1h198a.997.997 0 0 1 1 1 .997.997 0 0 1-1 1Z"/>
    <path fill="#08043F" d="M656.357 185.36s-2.988-16.526-9.79-14.552c-6.801 1.975-24.304 3.995-24.337-3.788-.032-7.783 16.476-14.662 26.209-13.731 9.733.931 26.283 3.779 25.372 18.376a59.94 59.94 0 0 1-8.303 26.01l-9.151-12.315Z"/>
  </g>
  <defs>
    <clipPath id="a">
      <path fill="#fff" d="M0 0h747.62v526H0z"/>
    </clipPath>
  </defs>
</svg>
